{
	"asset":{
		"generator":"Khronos glTF Blender I/O v4.2.69",
		"version":"2.0"
	},
	"scene":0,
	"scenes":[
		{
			"name":"Scene",
			"nodes":[
				0,
				1,
				2
			]
		}
	],
	"nodes":[
		{
			"camera":0,
			"name":"layout1_camera",
			"rotation":[
				-0.005016785115003586,
				0.4234559237957001,
				0.00265917438082397,
				0.905898928642273
			],
			"translation":[
				8.764871597290039,
				1.6465951204299927,
				7.461548805236816
			]
		},
		{
			"mesh":0,
			"name":"mall_storefront_plot",
			"translation":[
				0,
				0.0010000000474974513,
				0
			]
		},
		{
			"mesh":1,
			"name":"mall_storefront_plot_spacer",
			"scale":[
				1,
				0,
				1
			]
		}
	],
	"cameras":[
		{
			"name":"Camera",
			"perspective":{
				"aspectRatio":1.7777777777777777,
				"yfov":0.39959652046304894,
				"zfar":1000,
				"znear":0.10000000149011612
			},
			"type":"perspective"
		}
	],
	"materials":[
		{
			"doubleSided":true,
			"name":"Mall_storefront_plot",
			"pbrMetallicRoughness":{
				"baseColorFactor":[
					0.8001648187637329,
					0.6877363324165344,
					0.0076666586101055145,
					1
				],
				"metallicFactor":0,
				"roughnessFactor":0.5
			}
		},
		{
			"doubleSided":true,
			"name":"Mall_storefront_plot_spacer",
			"pbrMetallicRoughness":{
				"baseColorFactor":[
					0.023169154301285744,
					0.023169154301285744,
					0.023169154301285744,
					1
				],
				"metallicFactor":0,
				"roughnessFactor":0.5
			}
		}
	],
	"meshes":[
		{
			"name":"mall_storefront_plot",
			"primitives":[
				{
					"attributes":{
						"POSITION":0,
						"NORMAL":1,
						"TEXCOORD_0":2
					},
					"indices":3,
					"material":0
				}
			]
		},
		{
			"name":"mall_storefront_plot_spacer",
			"primitives":[
				{
					"attributes":{
						"POSITION":4,
						"NORMAL":5,
						"TEXCOORD_0":6
					},
					"indices":7,
					"material":1
				}
			]
		}
	],
	"accessors":[
		{
			"bufferView":0,
			"componentType":5126,
			"count":141,
			"max":[
				3,
				0.004999999888241291,
				3
			],
			"min":[
				-3,
				0.004999999888241291,
				-3
			],
			"type":"VEC3"
		},
		{
			"bufferView":1,
			"componentType":5126,
			"count":141,
			"type":"VEC3"
		},
		{
			"bufferView":2,
			"componentType":5126,
			"count":141,
			"type":"VEC2"
		},
		{
			"bufferView":3,
			"componentType":5123,
			"count":576,
			"type":"SCALAR"
		},
		{
			"bufferView":4,
			"componentType":5126,
			"count":154,
			"max":[
				3,
				3,
				3
			],
			"min":[
				-3,
				-3,
				-3
			],
			"type":"VEC3"
		},
		{
			"bufferView":5,
			"componentType":5126,
			"count":154,
			"type":"VEC3"
		},
		{
			"bufferView":6,
			"componentType":5126,
			"count":154,
			"type":"VEC2"
		},
		{
			"bufferView":7,
			"componentType":5123,
			"count":576,
			"type":"SCALAR"
		}
	],
	"bufferViews":[
		{
			"buffer":0,
			"byteLength":1692,
			"byteOffset":0,
			"target":34962
		},
		{
			"buffer":0,
			"byteLength":1692,
			"byteOffset":1692,
			"target":34962
		},
		{
			"buffer":0,
			"byteLength":1128,
			"byteOffset":3384,
			"target":34962
		},
		{
			"buffer":0,
			"byteLength":1152,
			"byteOffset":4512,
			"target":34963
		},
		{
			"buffer":0,
			"byteLength":1848,
			"byteOffset":5664,
			"target":34962
		},
		{
			"buffer":0,
			"byteLength":1848,
			"byteOffset":7512,
			"target":34962
		},
		{
			"buffer":0,
			"byteLength":1232,
			"byteOffset":9360,
			"target":34962
		},
		{
			"buffer":0,
			"byteLength":1152,
			"byteOffset":10592,
			"target":34963
		}
	],
	"buffers":[
		{
			"byteLength":11744,
			"uri":"mall_layout1.bin"
		}
	]
}
